<svg id="레이어_1" data-name="레이어 1" xmlns="http://www.w3.org/2000/svg" viewBox="0 0 629.04 631.43"><defs><style>.cls-1{fill:#023586;opacity:0.15;}</style></defs><path class="cls-1" d="M331.17,77.67l.24-2.19c6.48.7,8.56-1.28,9-5.58l5.08-46.59c.46-4.21-1.24-5.72-7.72-6.43l.24-2.19,32.58,3.56c9.72,1.06,17.16,7.63,16.06,17.7-1.24,11.39-9.88,16.65-20.39,15.5l-18-2-2.3,21c-.46,4.29,1.22,6.69,8.41,7.47l-.24,2.19ZM348.48,47.3,365,49.1c9.28,1,14.82-6.71,15.6-13.81s-3.25-14.09-12.36-15.08l-10.42-1.14c-4.3-.47-6.37.64-6.82,4.84Z" transform="translate(-15.26 -14.69)"/><path class="cls-1" d="M438.94,33.51l1.13,60.36c-.17,5.09,1.68,7.46,6.07,9.06l-.76,2.07-21-7.68.76-2.07c5.46,2,8.18,2.24,9.12-.32a8.7,8.7,0,0,0,.41-2.67l-.3-15.87L409.44,67.3l-8.86,10.36a14.81,14.81,0,0,0-2.21,3.51c-1.09,3,1,4.68,6.47,6.68l-.76,2.07-18-6.59.76-2.07c4.55,1.66,6.6,1.19,11.91-5.41l35-42.09Zm-5,4.54L411.14,65.2l23.18,8.46Z" transform="translate(-15.26 -14.69)"/><path class="cls-1" d="M447.86,106.78,449.1,105c5.46,3.72,8,3,10.44-.45l26.68-39.18c2.19-3.2,1.52-5.36-3.94-9.08l1.24-1.82,23.67,16.12c11.28,7.69,13.39,17.12,8.33,24.55-4.66,6.84-13.17,9.79-23.28,3.65l-2.42,29.06c-.3,3.73,1.29,5.78,5.15,8.4L493.73,138l-9.83-6.7,3.34-35.89-10.12-6.9-13,19.08c-2.38,3.5-1.63,6.46,3.47,9.93l-1.24,1.82Zm30.5-20,13.47,9.18c8.08,5.51,14.7,1.59,18.67-4.24,4.71-6.91,3-14.19-4.92-19.55l-6.48-4.41c-3.42-2.33-6.11-2.46-8.29.75Z" transform="translate(-15.26 -14.69)"/><path class="cls-1" d="M541.49,97.41l17,16.66-1.54,1.58c-4.91-4.82-7.47-5.48-10.55-2.34l-33.63,34.28c-2.47,2.51-2,5.31,2.9,10.12l-1.55,1.58-17-16.67,1.55-1.57c4.9,4.82,7.71,5.22,10.18,2.71l33.63-34.27c3.08-3.14,2.37-5.69-2.53-10.51Z" transform="translate(-15.26 -14.69)"/><path class="cls-1" d="M534,156.3c-3.06,8-5.51,18.73,1.75,28.81,5.2,7.22,12.1,10.62,20.39,4.65,7-5,6.21-11,1.44-24.38-3.35-9.64-5.95-20.8,3.34-27.49,6-4.32,15.74-5.58,24,5.93,3.71,5.15,4,9.62,5.33,11.48.26.35.46.64.76.75l3.81,2.58-9.52,13.91-1.49-.56c4-9.31,5.09-18.86-.88-27.15-4.17-5.8-10.68-9.25-18-4-7.58,5.46-5.4,14.52-2,23.59,4.3,11.56,6.68,21.8-2.48,28.39-10.08,7.25-19.72,2.91-26.31-6.25-3.66-5.07-4.61-11.22-5.8-12.87s-3.62-2.92-5.9-3.67l10-14.79Z" transform="translate(-15.26 -14.69)"/><path class="cls-1" d="M550.74,207.58l2-.86c2.56,6.1,4.3,7.28,8.6,5.47L604.68,194c4-1.67,5-4,2.45-10.1l2-.85,11.76,28c5.18,12.35,2.34,21.76-5.46,25-5.69,2.38-11.86,1.34-18.48-7.16,2.56,12-1.56,18.62-9.19,21.82-8.37,3.51-18.95-.08-24.61-13.57Zm35.45.23-22.67,9.5c-4.31,1.81-4.51,4.28-2.5,9.08l3.75,8.93c4.36,10.4,13.62,13.12,20.77,10.12s11.32-12.2,7.53-21.22Zm2-.86,6.31,15c3.47,8.28,12.76,11.08,19,8.45,5-2.11,9.43-8.73,5.27-18.64l-3.44-8.21c-2-4.79-4.57-6.11-8.55-4.44Z" transform="translate(-15.26 -14.69)"/><path class="cls-1" d="M642.59,284.35l-52.47,29.84c-4.56,2.29-5.75,5.05-5.06,9.67l-2.18.32-3.31-22.13,2.18-.33c.86,5.76,2,8.27,4.65,7.86a8.75,8.75,0,0,0,2.54-.91l13.79-7.85-3.92-26.23-13.34-2.82a14.32,14.32,0,0,0-4.13-.27c-3.14.47-3.63,3.12-2.78,8.87l-2.18.33-2.83-19,2.18-.32c.71,4.79,2.1,6.36,10.44,7.88l53.7,10.6Zm-6.4-2.25-34.72-7,3.65,24.4Z" transform="translate(-15.26 -14.69)"/><path class="cls-1" d="M605.06,389.21l-2.28-.24c.58-5.52-1.34-7.49-5.46-7.92l-20-2.07.41-4,4.71-1c-2.06-4-5.05-9.38-4.18-17.71,1.73-16.65,14.26-26.42,35.73-24.19,19.28,2,31.84,14.92,30.13,31.39a35.37,35.37,0,0,1-3.06,11.55l1,7.28-16.31,4.42-.47-1.47c6.44-4,15.4-10.09,16.59-21.57,1.31-12.62-10.46-23.76-28.07-25.59-21-2.19-32.22,7.45-33.36,18.41-1,9.46,5.23,17.82,10.58,18.37l6.83.71c4.12.43,6.41-1.19,7.23-9.08l2.28.24Z" transform="translate(-15.26 -14.69)"/><path class="cls-1" d="M635.45,411.53l-7.86,21-2.06-.77c2.19-5.86,1.48-8.48-2-9.78l-33.9-12.72c-10.07-3.78-19.85,1.21-23.87,11.93-2.94,7.84-2.9,18.77,10.79,23.91l33.57,12.6c3.47,1.3,5.6.13,7.92-6.06l2.07.77-6.81,18.15-2.07-.77c2.33-6.19,1.49-8.48-2-9.78l-34.07-12.79c-13.28-5-16.18-16.33-11.19-29.61,4.12-11,14.05-18.63,28.48-13.21l33,12.39c3.46,1.3,5.51.37,7.89-6Z" transform="translate(-15.26 -14.69)"/><path class="cls-1" d="M552.16,450.83l1.81,1.25c-3.42,4.93-3.25,7.93.22,10.35L593,489.36c3.33,2.31,6,1.26,9.41-3.66L604.2,487l-26.38,38L562,521.48l0-1.59c6.92-.56,15.74,1.27,23.52-9.95l4.93-7.09c2.61-3.76,2.67-6.62-.66-8.93l-17.45-12.11-7.63,11c-3.52,5.07-3.26,9.32,3.62,14.1l-1.21,1.73-20.26-14.07,1.2-1.73c6.44,4.47,11.18,3.68,14.69-1.39l7.64-11L551,467c-3.47-2.42-6.35-1.52-9,2.32l-4.72,6.8c-5.83,8.4-5.92,15.95-1.91,27.31l-1.48.91-9.33-13.77Z" transform="translate(-15.26 -14.69)"/><path class="cls-1" d="M504.27,511.67l1.45,1.66c-4.12,3.59-7.21,6.88-4.31,10.2l32.23,36.89c2.43,2.79,4.69,2.69,8.93-1,8.56-7.48,7.55-15.6,6.35-22.86l1.4-.28L556,550.57l-39.35,34.37-13.88-8,.72-1.45c7.82,2.53,14.43,5.41,22.66-1.78,4.58-4,5.78-6.92,3.34-9.7l-32.23-36.9c-2.9-3.32-5.84-1.33-10.69,2.9l-1.44-1.66Z" transform="translate(-15.26 -14.69)"/><path class="cls-1" d="M451.65,550.66l1,2c-4.9,2.42-8.74,4.8-6.79,8.75l21.63,44c1.63,3.32,3.84,3.81,8.9,1.32,10.19-5,11.31-13.13,12-20.45l1.41.08,1.84,15.3-46.88,23.08-11.36-11.3,1.07-1.22c6.91,4.46,12.56,9,22.36,4.12,5.45-2.68,7.36-5.19,5.73-8.51l-21.64-44c-1.94-3.95-5.3-2.79-11.07.05l-1-2Z" transform="translate(-15.26 -14.69)"/><path class="cls-1" d="M409.14,570.77l.46,2.16c-5.87,1.24-7.81,3.54-6.93,7.68l9.77,46.2c.84,4,3.49,5,9.35,3.78l.46,2.16L377,642.32l-9.14-13.38,1.11-1.13c5.43,4.34,10.59,11.72,23.95,8.89l8.45-1.79c4.48-.95,6.48-3,5.64-6.95l-4.4-20.78L389.51,610c-6,1.28-8.76,4.56-7,12.75l-2.07.43L375.31,599l2.07-.44C379,606.23,383,608.9,389,607.63l13.1-2.78-4.89-23.1c-.87-4.13-3.58-5.45-8.15-4.49L381,579c-10,2.11-15.25,7.55-20.12,18.57l-1.69-.36,2.65-16.41Z" transform="translate(-15.26 -14.69)"/><path class="cls-1" d="M323.51,583.27l-.27,2.19c-6.47-.82-8.58,1.13-9.12,5.42l-5.88,46.5c-.53,4.2,1.14,5.74,7.61,6.56l-.28,2.18L283.05,642c-9.7-1.23-17-7.93-15.76-18,1.44-11.37,10.17-16.48,20.66-15.16l18,2.28,2.65-21c.54-4.28-1.11-6.71-8.28-7.62l.28-2.18Zm-17.83,30.08-16.52-2.09c-9.27-1.17-14.94,6.46-15.83,13.54s3,14.15,12.1,15.3l10.4,1.31c4.28.54,6.37-.53,6.9-4.72Z" transform="translate(-15.26 -14.69)"/><path class="cls-1" d="M215,625.57l-.09-60.36c.26-5.1-1.55-7.49-5.91-9.17l.79-2.06,20.89,8-.79,2.06c-5.43-2.09-8.15-2.38-9.13.17a8.68,8.68,0,0,0-.46,2.65l0,15.87,24.75,9.53,9-10.21a14.65,14.65,0,0,0,2.28-3.47c1.14-3-.93-4.7-6.36-6.79l.79-2.05,17.93,6.89-.79,2.06c-4.52-1.74-6.58-1.3-12,5.2l-35.7,41.49Zm5.11-4.45,23.23-26.75-23-8.86Z" transform="translate(-15.26 -14.69)"/><path class="cls-1" d="M207.32,552.14l-1.28,1.8c-5.39-3.81-8-3.17-10.44.28l-27.36,38.71c-2.24,3.16-1.61,5.33,3.78,9.14l-1.27,1.8-23.38-16.53c-11.15-7.88-13.1-17.34-7.91-24.68,4.78-6.77,13.34-9.56,23.34-3.25l2.92-29c.37-3.73-1.19-5.8-5-8.5l1.27-1.8L171.7,527l-4,35.82,10,7.07L191.07,551c2.44-3.45,1.74-6.43-3.3-10l1.27-1.79Zm-30.85,19.52-13.31-9.41c-8-5.64-14.66-1.84-18.73,3.92-4.83,6.83-3.2,14.14,4.57,19.63l6.4,4.53c3.38,2.39,6.07,2.56,8.31-.61Z" transform="translate(-15.26 -14.69)"/><path class="cls-1" d="M113.54,559.93,96.85,543l1.57-1.55c4.82,4.9,7.37,5.6,10.51,2.51l34.21-33.7c2.51-2.47,2.1-5.28-2.72-10.17l1.56-1.55,16.7,17L157.11,517c-4.82-4.9-7.62-5.36-10.13-2.88l-34.22,33.69c-3.14,3.09-2.47,5.65,2.35,10.55Z" transform="translate(-15.26 -14.69)"/><path class="cls-1" d="M122.07,501.18c3.2-7.9,5.83-18.64-1.26-28.84-5.07-7.31-11.91-10.82-20.3-5-7.1,4.92-6.4,10.87-1.87,24.35,3.19,9.69,5.6,20.89-3.8,27.42-6.08,4.22-15.84,5.31-23.93-6.34-3.62-5.21-3.82-9.68-5.13-11.56a1.92,1.92,0,0,0-.75-.77l-3.76-2.64L71,484.06l1.48.58c-4.2,9.25-5.42,18.78.41,27.17,4.07,5.86,10.52,9.43,18,4.26,7.67-5.33,5.64-14.43,2.42-23.56-4.11-11.63-6.31-21.9,3-28.33,10.2-7.09,19.77-2.58,26.2,6.69,3.57,5.14,4.42,11.3,5.57,13s3.58,3,5.84,3.77l-10.23,14.62Z" transform="translate(-15.26 -14.69)"/><path class="cls-1" d="M106.19,449.64l-2,.82c-2.45-6.14-4.16-7.35-8.5-5.62L52,462.25c-4,1.6-5.07,3.92-2.62,10.06l-2,.82L36.08,444.9c-5-12.44-2-21.8,5.89-24.94,5.73-2.28,11.88-1.13,18.35,7.48C58,415.38,62.2,408.85,69.9,405.78c8.42-3.36,18.94.41,24.37,14Zm-37.49,0-6-15.14c-3.33-8.34-12.58-11.29-18.88-8.78-5.07,2-9.57,8.57-5.59,18.55l3.3,8.27c1.93,4.83,4.46,6.19,8.47,4.58Zm2-.81,22.83-9.12c4.34-1.73,4.59-4.2,2.66-9l-3.6-9c-4.18-10.47-13.39-13.34-20.59-10.47s-11.53,12-7.9,21.09Z" transform="translate(-15.26 -14.69)"/><path class="cls-1" d="M15.67,371.28l53-28.94c4.59-2.2,5.83-4.94,5.22-9.57l2.19-.29L79,354.67,76.8,355c-.76-5.77-1.81-8.3-4.51-7.94a8.67,8.67,0,0,0-2.56.87L55.81,355.5l3.46,26.3,13.29,3a14.54,14.54,0,0,0,4.14.35c3.14-.42,3.68-3.07,2.92-8.83l2.18-.29,2.52,19-2.19.29c-.63-4.8-2-6.4-10.3-8.06L18.31,375.82ZM22,373.64l34.6,7.62L53.4,356.8Z" transform="translate(-15.26 -14.69)"/><path class="cls-1" d="M55,267.09l2.27.27c-.67,5.51,1.22,7.52,5.33,8l19.94,2.41-.47,3.94-4.73.94c2,4.05,4.89,9.46,3.88,17.77-2,16.62-14.71,26.17-36.14,23.58-19.24-2.34-31.59-15.46-29.59-31.9a35,35,0,0,1,3.26-11.5l-.89-7.3,16.38-4.13.45,1.47c-6.51,3.91-15.57,9.83-17,21.28-1.53,12.6,10.05,23.94,27.63,26.08,21,2.54,32.35-6.91,33.67-17.84,1.15-9.45-4.93-17.91-10.26-18.55l-6.83-.83c-4.11-.5-6.43,1.08-7.38,8.95l-2.28-.27Z" transform="translate(-15.26 -14.69)"/><path class="cls-1" d="M25,244.26l8.22-20.82,2.05.81c-2.3,5.82-1.64,8.45,1.81,9.81l33.68,13.3c10,3.95,19.86-.87,24.07-11.53,3.07-7.78,3.22-18.71-10.38-24.09L51.06,198.57c-3.44-1.36-5.6-.22-8,5.93l-2-.81,7.12-18,2,.81c-2.43,6.14-1.64,8.45,1.81,9.81l33.84,13.36c13.2,5.21,15.9,16.61,10.69,29.8-4.3,10.9-14.37,18.39-28.71,12.73L35,239.22c-3.44-1.36-5.5-.47-8,5.84Z" transform="translate(-15.26 -14.69)"/><path class="cls-1" d="M108.93,206.39l-1.78-1.29c3.5-4.86,3.39-7.88-.05-10.35L68.78,167.16c-3.29-2.37-6-1.37-9.47,3.5l-1.79-1.29,27-37.54,15.76,3.75-.06,1.58c-6.93.44-15.71-1.54-23.69,9.54l-5,7c-2.67,3.72-2.78,6.58.51,8.94l17.23,12.41,7.83-10.87c3.6-5,3.42-9.26-3.38-14.16l1.24-1.71,20,14.41-1.24,1.72c-6.36-4.58-11.11-3.87-14.71,1.13l-7.82,10.87,19.16,13.8c3.43,2.47,6.32,1.62,9.05-2.17l4.84-6.72c6-8.3,6.19-15.84,2.38-27.28l1.5-.87,9.08,13.92Z" transform="translate(-15.26 -14.69)"/><path class="cls-1" d="M157.87,146.36l-1.43-1.68c4.18-3.53,7.33-6.76,4.49-10.13l-31.6-37.44c-2.38-2.82-4.64-2.77-9,.87-8.68,7.33-7.81,15.47-6.74,22.75l-1.4.26-5.47-14.41L146.7,72.89l13.75,8.23-.75,1.43C151.93,79.89,145.36,76.9,137,84c-4.64,3.92-5.89,6.81-3.5,9.64L165.1,131c2.84,3.37,5.82,1.43,10.74-2.72l1.42,1.69Z" transform="translate(-15.26 -14.69)"/><path class="cls-1" d="M211.15,108.28l-.94-2c4.94-2.32,8.82-4.64,6.94-8.62L196.28,53.34c-1.58-3.35-3.77-3.87-8.87-1.47C177.12,56.71,175.87,64.8,175,72.11L173.61,72,172,56.67l47.27-22.26,11.16,11.5-1.09,1.19c-6.83-4.57-12.4-9.16-22.28-4.5-5.5,2.59-7.45,5.06-5.88,8.41l20.87,44.32c1.88,4,5.26,2.88,11.08.14l.93,2Z" transform="translate(-15.26 -14.69)"/><path class="cls-1" d="M254,88.9l-.42-2.16c5.88-1.14,7.87-3.41,7.06-7.56l-9-46.37c-.77-4-3.41-5.08-9.29-3.94l-.42-2.16,45.42-8.8,8.9,13.53-1.13,1.12c-5.35-4.44-10.38-11.9-23.79-9.3l-8.48,1.64c-4.5.87-6.53,2.88-5.76,6.86l4,20.85,13.15-2.55c6-1.17,8.84-4.41,7.24-12.62l2.08-.4,4.69,24.22-2.07.4c-1.5-7.7-5.44-10.44-11.49-9.26l-13.15,2.54,4.49,23.18c.81,4.16,3.49,5.52,8.08,4.63l8.13-1.57c10-2,15.37-7.29,20.43-18.23l1.69.39L301.48,79.7Z" transform="translate(-15.26 -14.69)"/></svg>