<svg id="레이어_1" data-name="레이어 1" xmlns="http://www.w3.org/2000/svg" viewBox="0 0 150 150"><defs><style>.cls-1{fill:#f1aa1c;}</style></defs><path class="cls-1" d="M52.89,22.35l-.15-.48c1.42-.43,1.68-1,1.4-2L51.05,9.68c-.28-.92-.77-1.09-2.19-.66l-.14-.48,7.14-2.16c2.14-.64,4.28.07,5,2.28.75,2.5-.59,4.37-2.9,5.07L54,14.92l1.39,4.61c.28.94.85,1.3,2.42.82l.15.48Zm.92-7.91,3.63-1.09a3.31,3.31,0,0,0,2-4.29A3,3,0,0,0,55.55,7l-2.29.69c-.94.28-1.28.7-1,1.62Z"/><path class="cls-1" d="M71.54,3.51l5.6,12.56a1.83,1.83,0,0,0,2.08,1.36l0,.5-5.1.26,0-.5c1.32-.07,1.92-.26,1.88-.88a1.63,1.63,0,0,0-.15-.6l-1.47-3.3-6,.31-.93,3a3.53,3.53,0,0,0-.16.93c0,.72.63.89,2,.83l0,.5-4.37.22,0-.5c1.1-.06,1.49-.34,2-2.19l3.6-12Zm-.66,1.4-2.36,7.71,5.62-.28Z"/><path class="cls-1" d="M79.92,18.07l.1-.49c1.48.3,2-.08,2.15-1L84.28,6c.17-.87-.16-1.26-1.64-1.56l.1-.49,6.4,1.28c3,.6,4.33,2.39,3.93,4.4-.37,1.85-1.89,3.23-4.56,2.84l2.08,6.31c.27.81.79,1.1,1.83,1.3l-.1.5L89.66,20l-2.49-7.83-2.74-.54-1,5.15c-.19.95.23,1.5,1.61,1.78l-.1.49Zm4.61-6.91,3.64.72c2.19.44,3.23-1,3.54-2.55.37-1.87-.64-3.24-2.77-3.66l-1.75-.35c-.93-.18-1.5,0-1.67.89Z"/><path class="cls-1" d="M98.73,7.79l5,2-.18.46c-1.46-.58-2-.49-2.42.44l-4,10.18c-.29.74.05,1.29,1.51,1.87l-.19.46-5-2,.19-.46c1.45.58,2.08.41,2.38-.33l4-10.17c.37-.94,0-1.41-1.46-2Z"/><path class="cls-1" d="M102.36,20.82c0,1.95.48,4.42,2.89,5.91,1.73,1.06,3.48,1.17,4.7-.82,1-1.67.34-2.85-1.84-5.25-1.55-1.73-3.07-3.84-1.71-6.07.89-1.43,2.82-2.55,5.57-.86a15.26,15.26,0,0,1,2.13,1.95.45.45,0,0,0,.22.09l1,.21-.78,3.76h-.36c0-2.31-.59-4.41-2.57-5.63-1.38-.85-3-1-4.14.75s.14,3.53,1.65,5.14c1.92,2,3.31,4,2,6.18-1.48,2.41-3.89,2.34-6.08,1a18.18,18.18,0,0,1-2.35-2.2,2.86,2.86,0,0,0-1.56-.26l.8-4Z"/><path class="cls-1" d="M110.36,30.13l.36-.36c1.07,1.06,1.54,1.15,2.28.4l7.52-7.62c.69-.7.7-1.28-.37-2.34l.35-.35,4.93,4.86c2.17,2.14,2.4,4.37,1,5.74-1,1-2.37,1.32-4.51.12,1.59,2.3,1.3,4.05,0,5.39s-4,1.64-6.36-.7Zm7.48-3.06-3.94,4c-.74.76-.57,1.3.27,2.13l1.57,1.55c1.83,1.81,4,1.56,5.26.31a3.66,3.66,0,0,0-.28-5.12Zm.35-.36,2.64,2.61a3.43,3.43,0,0,0,4.74.11c.88-.88,1.22-2.66-.52-4.38l-1.45-1.42c-.84-.84-1.49-.89-2.18-.19Z"/><path class="cls-1" d="M136.41,38.22,128,49.09a1.82,1.82,0,0,0-.22,2.48l-.43.26-2.63-4.37.43-.25c.68,1.13,1.13,1.56,1.66,1.24a2,2,0,0,0,.46-.41l2.21-2.86L126.35,40l-3.06.58a3.13,3.13,0,0,0-.89.31c-.62.37-.49,1,.2,2.11l-.43.26-2.27-3.75.43-.26c.58,1,1,1.15,2.89.74l12.22-2.48Zm-1.55.09L127,39.88l2.9,4.81Z"/><path class="cls-1" d="M137.64,63.58l-.5.15c-.36-1.21-.94-1.46-1.84-1.2l-4.39,1.29-.26-.86.91-.63A6.51,6.51,0,0,1,129.15,59c-1.08-3.65.72-6.8,5.43-8.18,4.24-1.25,8,.38,9.07,4a8,8,0,0,1,.35,2.7l.85,1.45-3.06,2.34-.22-.27c1-1.4,2.37-3.46,1.63-6-.82-2.77-4.26-4.1-8.14-3-4.62,1.36-6.14,4.36-5.43,6.76.61,2.08,2.64,3.31,3.82,3l1.5-.44c.9-.27,1.25-.81.74-2.54l.5-.15Z"/><path class="cls-1" d="M146,65.63l.16,5.1h-.51c0-1.42-.41-1.91-1.26-1.89l-8.24.25a4.12,4.12,0,0,0-4,4.58c.06,1.91,1,4.21,4.34,4.11l8.17-.25c.84,0,1.19-.46,1.14-2l.5,0L146.4,80h-.5c-.05-1.5-.42-1.91-1.27-1.89l-8.28.25c-3.23.1-4.83-2-4.92-5.27-.09-2.67,1.35-5.14,4.86-5.25l8-.24c.85,0,1.2-.4,1.15-2Z"/><path class="cls-1" d="M131.81,81.11l.49.11c-.29,1.33,0,2,.94,2.16l10.5,2.33c.9.19,1.37-.26,1.67-1.59l.49.11-2.28,10.29-3.63.63-.13-.34c1.41-.71,3.43-1.09,4.1-4.13l.42-1.92c.23-1,0-1.62-.91-1.82l-4.72-1-.66,3c-.3,1.37.12,2.25,2,2.66L140,92l-5.49-1.21.1-.47c1.75.38,2.68-.19,3-1.56l.66-3L133,84.62c-.94-.21-1.47.23-1.7,1.26l-.41,1.85c-.5,2.27.13,3.87,2,5.92l-.23.31-3.16-2.09Z"/><path class="cls-1" d="M127,98.06l.45.23c-.56,1.11-.94,2.06,0,2.52l10,5c.75.38,1.22.16,1.8-1,1.17-2.31.26-3.94-.61-5.37l.27-.18,2.43,2.53-5.38,10.62-3.61-.5,0-.36c1.87-.14,3.52-.1,4.64-2.32.63-1.23.63-2-.12-2.33l-10-5c-.9-.46-1.35.22-2,1.52l-.45-.22Z"/><path class="cls-1" d="M119.18,110.75l.37.33c-.83.93-1.44,1.76-.69,2.43l8.31,7.45c.62.56,1.13.47,2-.48,1.73-1.93,1.27-3.74.8-5.35l.31-.1,1.69,3.08L124,127l-3.36-1.43.13-.34c1.83.35,3.41.82,5.07-1,.92-1,1.11-1.73.49-2.29L118,114.43c-.75-.67-1.36-.14-2.34.95l-.37-.33Z"/><path class="cls-1" d="M111.9,118.62l.28.41c-1.13.76-1.35,1.42-.81,2.22l6,8.93c.51.76,1.16.76,2.29,0l.29.42-8.75,5.88-3.07-2,.13-.34c1.52.46,3.24,1.58,5.82-.16l1.64-1.1c.86-.58,1.11-1.18.6-2l-2.7-4-2.54,1.7c-1.16.78-1.46,1.71-.4,3.29l-.4.27-3.13-4.66.4-.27c1,1.48,2.06,1.7,3.23.92l2.53-1.7-3-4.47c-.54-.8-1.22-.84-2.1-.25l-1.57,1c-1.93,1.3-2.58,2.9-2.67,5.64l-.39.07-.84-3.69Z"/><path class="cls-1" d="M100.69,126l.18.47c-1.39.52-1.61,1.14-1.26,2.06l3.79,10c.34.9.84,1,2.23.5l.18.47-7,2.65c-2.08.79-4.27.23-5.09-1.93-.93-2.44.28-4.4,2.53-5.26l3.87-1.46L98.43,129c-.35-.92-.94-1.23-2.48-.65l-.18-.46Zm-.37,8-3.55,1.34A3.32,3.32,0,0,0,95,139.72a3,3,0,0,0,4.07,1.78l2.23-.84c.92-.35,1.23-.79.89-1.69Z"/><path class="cls-1" d="M83.36,146.08l-6.45-12.14a1.81,1.81,0,0,0-2.16-1.22l-.06-.5,5.06-.6.06.5c-1.32.15-1.9.38-1.82,1a2,2,0,0,0,.19.59l1.69,3.19,6-.72.73-3a3.09,3.09,0,0,0,.09-.94c-.08-.71-.68-.84-2-.69l-.06-.49,4.34-.52L89,131c-1.09.14-1.46.44-1.86,2.33L84.4,145.5Zm.55-1.44,1.83-7.86-5.58.67Z"/><path class="cls-1" d="M74,132.12l-.06.5c-1.5-.19-2,.21-2.08,1.17L70.47,144.5c-.11.88.25,1.25,1.74,1.44l-.06.5-6.47-.83c-3.09-.4-4.49-2.1-4.23-4.13.24-1.87,1.67-3.35,4.35-3.15l-2.51-6.15c-.32-.79-.85-1-1.91-1.18l.07-.49,2.68.34,3,7.64,2.77.36.67-5.22c.12-1-.34-1.48-1.73-1.66l.06-.5Zm-4.13,7.22-3.68-.47c-2.21-.29-3.15,1.19-3.36,2.79-.24,1.89.87,3.18,3,3.46l1.77.23c.94.12,1.5-.13,1.61-1Z"/><path class="cls-1" d="M56,143.68,50.79,142l.16-.48c1.49.47,2.08.34,2.38-.61l3.32-10.42c.24-.77-.14-1.29-1.63-1.76l.15-.48,5.16,1.64-.15.48c-1.49-.47-2.1-.27-2.35.5l-3.31,10.42c-.31.95.1,1.4,1.59,1.87Z"/><path class="cls-1" d="M51.44,130.94c-.18-1.94-.78-4.38-3.29-5.69-1.8-.94-3.55-.93-4.63,1.13-.91,1.74-.14,2.87,2.2,5.11,1.66,1.62,3.33,3.63,2.12,5.94-.78,1.49-2.63,2.74-5.5,1.24a15,15,0,0,1-2.25-1.79.38.38,0,0,0-.23-.07l-1-.14.52-3.8.36,0c.12,2.31.88,4.36,2.95,5.44,1.44.75,3.11.79,4.07-1s-.38-3.51-2-5c-2.06-1.91-3.59-3.76-2.4-6,1.32-2.51,3.72-2.61,6-1.41a16.75,16.75,0,0,1,2.49,2,2.92,2.92,0,0,0,1.58.14l-.52,4Z"/><path class="cls-1" d="M42.79,122.2l-.32.38c-1.14-1-1.62-1-2.31-.24l-7,8.1c-.64.75-.61,1.33.53,2.31l-.33.38-5.25-4.51c-2.31-2-2.69-4.2-1.43-5.66.91-1.06,2.28-1.48,4.49-.42-1.74-2.19-1.58-4-.34-5.38s3.87-1.92,6.39.26Zm-7.57,3.94-2.82-2.43a3.42,3.42,0,0,0-4.73.22c-.82.94-1,2.74.82,4.33L30,129.58c.89.78,1.55.79,2.19,0Zm.33-.38,3.65-4.25c.69-.8.48-1.33-.42-2.1L37.11,118c-2-1.68-4.11-1.29-5.26,0a3.65,3.65,0,0,0,.62,5.09Z"/><path class="cls-1" d="M16.27,115.92l7.65-11.43A1.82,1.82,0,0,0,24,102l.42-.29,2.93,4.18-.41.28c-.77-1.08-1.24-1.48-1.75-1.12a2,2,0,0,0-.43.44l-2,3,3.47,4.94,3-.78a3.32,3.32,0,0,0,.87-.37c.59-.41.42-1-.34-2.09l.41-.29,2.52,3.58-.41.29c-.64-.9-1.08-1.08-2.94-.54l-12,3.31Zm1.53-.2,7.79-2.11L22.36,109Z"/><path class="cls-1" d="M13.29,90.72l.49-.18c.44,1.18,1,1.39,1.92,1.06L20,90l.31.84-.86.69a6.57,6.57,0,0,1,2.65,3.19c1.32,3.57-.25,6.84-4.86,8.55-4.14,1.54-8,.17-9.32-3.37a7.92,7.92,0,0,1-.54-2.67l-.94-1.38,2.88-2.55.25.25C8.65,95,7.43,97.18,8.35,99.64c1,2.71,4.53,3.8,8.31,2.39,4.52-1.67,5.83-4.77,5-7.12-.76-2-2.87-3.11-4-2.69l-1.47.55c-.88.33-1.19.89-.56,2.58l-.49.18Z"/><path class="cls-1" d="M4.84,89.2l-.5-5.07.5,0C5,85.5,5.39,86,6.23,85.88l8.21-.81a4.11,4.11,0,0,0,3.67-4.84c-.18-1.9-1.29-4.13-4.61-3.8l-8.12.8c-.84.08-1.16.54-1,2l-.5,0-.44-4.4.5,0c.15,1.5.55,1.88,1.39,1.8l8.25-.81c3.21-.32,4.95,1.71,5.26,4.93.27,2.65-1,5.22-4.49,5.56l-8,.79c-.84.08-1.16.48-1,2Z"/><path class="cls-1" d="M17.91,72.8l-.5-.07c.2-1.35-.13-2-1.08-2.1L5.69,69c-.92-.14-1.36.34-1.56,1.69l-.49-.07L5.2,60.24l3.58-.89.15.33c-1.36.81-3.34,1.33-3.8,4.4l-.29,2c-.16,1,.12,1.62,1,1.76l4.79.72.45-3C11.32,64.1,10.83,63.25,9,63L9,62.5l5.56.83-.07.48c-1.77-.27-2.66.37-2.86,1.76l-.46,3,5.32.79c1,.15,1.45-.33,1.61-1.38l.28-1.87c.35-2.3-.4-3.85-2.36-5.77l.21-.33,3.29,1.87Z"/><path class="cls-1" d="M21.58,55.58l-.47-.19c.49-1.15.79-2.13-.13-2.52L10.7,48.52c-.78-.33-1.23-.08-1.73,1.1-1,2.39,0,4,1,5.32l-.26.2-2.6-2.36,4.63-11,3.65.25v.37c-1.85.26-3.49.33-4.46,2.63-.54,1.27-.5,2,.28,2.32l10.28,4.34c.93.39,1.33-.31,1.9-1.66l.47.2Z"/><path class="cls-1" d="M28.47,42.36l-.4-.3c.77-1,1.32-1.85.53-2.47l-8.8-6.86c-.67-.52-1.17-.4-2,.61-1.59,2-1,3.81-.43,5.39l-.3.12-1.9-3,7.33-9.38L26,27.7l-.09.36c-1.86-.23-3.47-.59-5,1.37-.85,1.09-1,1.8-.33,2.31l8.8,6.87c.79.62,1.37,0,2.27-1.11l.39.31Z"/><path class="cls-1" d="M35.19,34l-.31-.39c1.08-.84,1.25-1.51.66-2.27l-6.6-8.49c-.57-.73-1.22-.69-2.3.15l-.31-.4,8.33-6.46L37.86,18l-.11.35C36.2,18,34.41,17,32,18.9L30.4,20.1c-.82.64-1,1.26-.46,2l3,3.82L35.31,24c1.11-.86,1.35-1.81.18-3.31l.38-.3,3.44,4.44-.38.3c-1.09-1.41-2.18-1.56-3.28-.7l-2.41,1.87,3.3,4.25c.59.76,1.27.76,2.11.11l1.49-1.16c1.84-1.43,2.38-3.06,2.28-5.81l.38-.09,1.09,3.62Z"/></svg>