<svg id="레이어_1" data-name="레이어 1" xmlns="http://www.w3.org/2000/svg" viewBox="0 0 631.05 629.7"><defs><style>.cls-1{fill:#055403;}</style></defs><path class="cls-1" d="M350.68,80.61l.3-2.23c5.53.73,10.14.9,10.73-3.56l6.63-49.6c.5-3.75-1.09-5.41-6.8-6.18C350,17.51,344.47,23.76,339.7,29.57l-1.15-.88,7.14-14,52.89,7.06,3.22,16.05-1.6.42c-3.33-7.71-5.57-14.72-16.63-16.2-6.16-.82-9.2.22-9.7,4l-6.63,49.6c-.59,4.46,2.92,5.38,9.43,6.25l-.3,2.23Z" transform="translate(-14.17 -14.66)"/><path class="cls-1" d="M398.47,87.38l.88-2.07c6.21,2.64,8.54,1.77,10.16-2L428.77,38c1.38-3.23.6-5.32-5.86-8.07l.88-2.07,21,9L444,38.85c-6.05-2.57-8.58-1.89-10,1.34l-8.91,21,32.39,13.77L466.38,54c1.37-3.23-.23-5.67-5.95-8.1l.88-2.07,21,8.94-.88,2.07c-6-2.53-8.59-1.89-10,1.34l-19.26,45.31c-1.62,3.81-.3,6.23,5.66,8.76l-.88,2.07-21-8.94.88-2.07c5.72,2.43,8.62,1.8,10.24-2L456.59,77,424.2,63.21l-9.47,22.28c-1.62,3.81-.47,6.16,5.66,8.77l-.88,2.07Z" transform="translate(-14.17 -14.66)"/><path class="cls-1" d="M459.78,114.39l1.37-1.78c4.85,3.73,7.93,3.71,10.56.29l29.43-38.22c2.53-3.28,1.59-6-3.26-9.78l1.37-1.78,37.44,28.82-4.34,16-1.62-.11c-.22-7.1,2.09-16-9-24.5l-7-5.38c-3.71-2.86-6.62-3.06-9.15.22L492.4,95.33l10.84,8.34c5,3.84,9.35,3.79,14.56-3l1.71,1.31-15.37,20-1.71-1.32c4.89-6.34,4.32-11.21-.67-15.05l-10.84-8.35-14.71,19.11c-2.64,3.42-1.87,6.4,1.91,9.31l6.7,5.16c8.28,6.37,16,6.85,27.77,3.32l.85,1.56-14.52,8.82Z" transform="translate(-14.17 -14.66)"/><path class="cls-1" d="M527.05,171.61l2-1.14c3.35,5.75,5.86,6.48,9.67,4.25L581,150c3.11-1.81,3.23-4.28,0-9.88l1.94-1.13,8.17,14L553,199.68l59.35-10.28,8.44,14.46L618.89,205c-3.63-6.21-5.6-6.73-8.63-5L567.9,224.77c-3.42,2-4.4,4.76-1,10.59L565,236.5l-11.49-19.66,1.95-1.14c3.31,5.67,6.25,6.25,9.67,4.25L611,193.12l-.5-.85L545,203.55l-.72-1.24,41.07-50.67-.55-.93L539.94,176.9c-3.81,2.22-4.36,4.84-1,10.59l-2,1.14Z" transform="translate(-14.17 -14.66)"/><path class="cls-1" d="M565,239.8l2.18-.56c1.52,5.93,4,7.81,8.14,6.73l46.72-12c4-1,5-3.79,3.44-9.72l2.18-.56,11.8,45.76-13.25,9.92L625,278.25c4.2-5.73,11.49-11.33,8-24.84l-2.2-8.54c-1.17-4.53-3.35-6.48-7.35-5.45l-21,5.41,3.41,13.25c1.58,6.1,5,8.74,13.32,6.61l.54,2.09-24.4,6.29-.54-2.09c7.76-2,10.3-6.19,8.73-12.29l-3.41-13.25-23.36,6c-4.19,1.08-5.41,3.9-4.22,8.52l2.11,8.2c2.61,10.11,8.39,15.22,19.86,19.7l-.3,1.74-16.86-2Z" transform="translate(-14.17 -14.66)"/><path class="cls-1" d="M580.52,297.74l2.25,0c-.1,6.38,1.57,8.57,6.07,8.65l47.78.77c4.5.08,6.25-2.06,6.35-8.44l2.25,0-.2,12.15-54.84,40.15,47,.76c3.5.06,5-2.25,5.1-9.27l2.25,0-.34,20.61-2.25,0c.1-5.94-1.39-8.66-4.81-8.72l-57.94-.94,0-1.44,58.11-42.17-48.5-.79c-4.5-.07-6.24,1.88-6.36,9.26l-2.25,0Z" transform="translate(-14.17 -14.66)"/><path class="cls-1" d="M634.79,414.88l-61.34,6.2c-5.2.25-7.46,2.34-8.72,6.93l-2.17-.59,6.06-22,2.17.59c-1.58,5.73-1.6,8.52,1.09,9.26a9,9,0,0,0,2.75.2l16.13-1.64,7.17-26.12-11.29-8.14a15,15,0,0,0-3.75-2c-3.13-.86-4.69,1.42-6.26,7.14l-2.17-.59,5.2-18.92,2.17.59c-1.31,4.78-.66,6.82,6.5,11.68l45.78,32.09Zm-5-4.74-29.54-20.91-6.67,24.3Z" transform="translate(-14.17 -14.66)"/><path class="cls-1" d="M555.73,497.18l-2-1.18c2.87-4.89,1.92-7.54-1.73-9.68l-17.7-10.38,2.05-3.49,4.81,1c-.22-4.61-.73-10.86,3.6-18.23,8.65-14.75,24.43-18.54,43.46-7.38,17.08,10,23.3,27.33,14.74,41.93a36.24,36.24,0,0,1-7.73,9.44l-2.14,7.2-17-2.79.19-1.56c7.69-1,18.59-2.87,24.55-13,6.56-11.18.32-26.52-15.28-35.68-18.63-10.92-33.12-6.69-38.81,3-4.92,8.38-2.67,18.78,2.07,21.56l6,3.55c3.65,2.14,6.47,1.6,10.57-5.39l2,1.19Z" transform="translate(-14.17 -14.66)"/><path class="cls-1" d="M528.35,484.83,530,486.4c-4.29,4.37-4.65,7.43-1.56,10.45l34.41,33.81c3,2.9,5.81,2.3,10.1-2.07l1.61,1.58-33.11,33.71-15.33-6.23.3-1.59c7.07.64,15.63,4,25.41-6l6.18-6.29c3.28-3.34,3.82-6.21.87-9.11l-15.47-15.2-9.59,9.76c-4.41,4.5-4.89,8.83,1.21,14.82l-1.51,1.54L515.5,528l1.52-1.54c5.71,5.62,10.61,5.64,15,1.14l9.58-9.76-17.21-16.9c-3.08-3-6.13-2.62-9.47.79l-5.93,6c-7.32,7.45-8.71,15-6.63,27.17l-1.65.65-7-15.46Z" transform="translate(-14.17 -14.66)"/><path class="cls-1" d="M485.92,527.5l1.19,1.91c-5.74,3.56-6.18,6.27-3.9,9.94l25.54,41.14c2.09,3.36,4.38,3.64,10.11.08l1.19,1.91L495.2,597.91c-11.85,7.35-21.53,5.42-26.37-2.38-4.46-7.19-3.69-16.36,6.22-23.25L448.92,558c-3.36-1.83-5.93-1.19-10,1.33l-1.18-1.91L448.07,551l32.13,18,10.63-6.59-12.43-20c-2.28-3.67-5.36-4.19-10.72-.87l-1.18-1.91Zm6.1,36.79-14.15,8.78c-8.48,5.27-7.56,13.06-3.76,19.18,4.5,7.27,12,8.63,20.29,3.51l6.8-4.23c3.59-2.23,4.82-4.69,2.73-8Z" transform="translate(-14.17 -14.66)"/><path class="cls-1" d="M455.6,618.89,433,627.72l-.82-2.1c6.54-2.55,8.23-4.66,6.6-8.85l-17.82-45.7c-1.3-3.36-4.11-4.1-10.65-1.55l-.81-2.1,22.64-8.82.82,2.09c-6.54,2.55-8.1,5-6.8,8.35l17.82,45.71c1.63,4.19,4.3,4.6,10.84,2Z" transform="translate(-14.17 -14.66)"/><path class="cls-1" d="M404.81,570.33l.41,2.21c-6,1.13-8,3.44-7.24,7.69l9,47.39c.77,4.07,3.46,5.21,9.47,4.07l.42,2.21-46.42,8.79-9-13.86,1.16-1.13c5.44,4.55,10.55,12.19,24.26,9.6l8.67-1.64c4.59-.87,6.68-2.91,5.91-7l-4-21.31-13.44,2.54c-6.19,1.17-9.05,4.46-7.46,12.86l-2.12.4-4.69-24.75,2.12-.41c1.49,7.87,5.5,10.69,11.69,9.51L396.89,605l-4.48-23.7c-.8-4.24-3.54-5.65-8.23-4.76l-8.31,1.57c-10.26,1.95-15.73,7.38-20.95,18.53l-1.73-.4,3.07-16.71Z" transform="translate(-14.17 -14.66)"/><path class="cls-1" d="M298.24,578.24l-.4,2.22c-5.49-1-10.09-1.36-10.88,3.07l-8.83,49.26c-.67,3.72.85,5.46,6.52,6.47,11.42,2,17.25-3.94,22.28-9.53l1.11.93-7.76,13.69-52.53-9.42-2.5-16.17,1.62-.35c3,7.85,4.91,15,15.89,16.93,6.12,1.1,9.21.19,9.87-3.53l8.83-49.26c.8-4.43-2.67-5.51-9.13-6.67l.39-2.21Z" transform="translate(-14.17 -14.66)"/><path class="cls-1" d="M250.8,569.33l-1,2c-6.08-2.92-8.44-2.15-10.23,1.58l-21.28,44.39c-1.52,3.17-.84,5.29,5.49,8.33l-1,2-20.61-9.88,1-2c5.92,2.84,8.49,2.27,10-.9L223,594.35,191.3,579.14l-9.84,20.54c-1.51,3.16,0,5.67,5.58,8.36l-1,2-20.62-9.88,1-2c5.85,2.8,8.49,2.27,10-.89l21.28-44.4c1.79-3.73.58-6.21-5.27-9l1-2L214,551.71l-1,2c-5.6-2.68-8.53-2.19-10.32,1.54l-10.46,21.83L224,592.32l10.46-21.83c1.79-3.73.75-6.13-5.26-9l1-2Z" transform="translate(-14.17 -14.66)"/><path class="cls-1" d="M190.77,539.62l-1.45,1.72c-4.68-4-7.75-4.07-10.54-.76l-31.09,36.88c-2.67,3.17-1.86,6,2.82,9.92l-1.45,1.72-36.13-30.46,5-15.76,1.61.18c-.1,7.1-2.8,15.89,7.87,24.88l6.74,5.69c3.58,3,6.48,3.34,9.15.18l14-16.59-10.46-8.82c-4.81-4.06-9.17-4.2-14.68,2.34l-1.65-1.39,16.24-19.27,1.65,1.39c-5.16,6.13-4.81,11,0,15.08l10.46,8.81,15.55-18.44c2.78-3.3,2.14-6.31-1.51-9.39l-6.46-5.45c-8-6.73-15.66-7.55-27.6-4.55l-.78-1.59L153,507.77Z" transform="translate(-14.17 -14.66)"/><path class="cls-1" d="M126.07,479.46l-2,1.05c-3.1-5.9-5.57-6.73-9.47-4.68L71.19,498.66c-3.19,1.67-3.42,4.13-.4,9.87l-2,1.05-7.54-14.34,40.11-45-59.75,7.63-7.79-14.82,2-1.05c3.35,6.37,5.3,7,8.4,5.34l43.42-22.82c3.51-1.85,4.62-4.57,1.48-10.54l2-1.05,10.6,20.16-2,1c-3.06-5.81-6-6.52-9.48-4.67L43.15,454.22l.46.88,66-8.35.67,1.27L67,496.81l.51,1,46-24.17c3.91-2.05,4.58-4.64,1.48-10.54l2-1Z" transform="translate(-14.17 -14.66)"/><path class="cls-1" d="M91.23,409.64l-2.2.46c-1.26-6-3.61-8-7.84-7.09L34,412.94c-4,.85-5.14,3.56-3.88,9.55l-2.2.47-9.72-46.24,13.67-9.32L33,368.54c-4.44,5.53-12,10.8-9.11,24.45l1.81,8.63c1,4.58,3.05,6.62,7.1,5.77L54,402.93l-2.82-13.39c-1.29-6.17-4.64-9-13-7.2l-.44-2.11L62.43,375l.45,2.12C55,378.8,52.31,382.87,53.6,389l2.82,13.39,23.6-5c4.23-.89,5.58-3.65,4.6-8.32l-1.74-8.28c-2.15-10.22-7.7-15.58-18.95-20.57l.37-1.74,16.76,2.73Z" transform="translate(-14.17 -14.66)"/><path class="cls-1" d="M78.81,350.87l-2.25-.1c.29-6.39-1.32-8.62-5.82-8.82L23,339.81c-4.49-.2-6.3,1.88-6.58,8.26l-2.25-.1.54-12.14,56-38.57-46.93-2.1c-3.5-.16-5,2.11-5.36,9.13l-2.25-.1.92-20.59,2.25.1c-.26,5.93,1.14,8.7,4.56,8.85l57.9,2.6-.07,1.43-59.28,40.5,48.45,2.17c4.5.2,6.3-1.7,6.63-9.07l2.24.1Z" transform="translate(-14.17 -14.66)"/><path class="cls-1" d="M29.29,231.6l61.56-3.43c5.21,0,7.56-2,9-6.54l2.14.69-7,21.75-2.15-.69c1.84-5.66,2-8.45-.67-9.31a9,9,0,0,0-2.74-.31l-16.19.9-8.34,25.78,10.92,8.64a15.29,15.29,0,0,0,3.66,2.14c3.08,1,4.74-1.21,6.57-6.86l2.14.69-6,18.67L80,283c1.52-4.71,1-6.78-6-12L29.73,237Zm4.82,5,28.57,22.21,7.77-24Z" transform="translate(-14.17 -14.66)"/><path class="cls-1" d="M112,152.94l2,1.27c-3.08,4.76-2.25,7.44,1.3,9.74l17.23,11.16-2.21,3.4-4.76-1.26c0,4.62.24,10.88-4.41,18.06-9.3,14.35-25.23,17.43-43.74,5.43C60.7,190,55.26,172.4,64.46,158.2a36.2,36.2,0,0,1,8.15-9.1L75.06,142,92,145.56l-.26,1.55c-7.73.67-18.69,2-25.11,11.93-7.05,10.88-1.5,26.48,13.68,36.32,18.13,11.75,32.79,8.17,38.91-1.28,5.28-8.15,3.5-18.64-1.11-21.63l-5.89-3.81c-3.55-2.31-6.39-1.89-10.8,4.9l-2-1.27Z" transform="translate(-14.17 -14.66)"/><path class="cls-1" d="M138.74,166.5l-1.53-1.64c4.47-4.17,5-7.21,2-10.37L106.34,119.2c-2.82-3-5.7-2.56-10.18,1.61l-1.54-1.65L129.19,87l15,6.9-.37,1.58c-7-1-15.44-4.68-25.64,4.83l-6.46,6c-3.42,3.19-4.09,6-1.27,9.06l14.78,15.87,10-9.33c4.61-4.29,5.27-8.6-.56-14.85l1.58-1.48L153.48,124l-1.58,1.47c-5.46-5.86-10.35-6.1-15-1.8l-10,9.33,16.45,17.64c2.94,3.16,6,2.89,9.5-.36l6.18-5.77c7.64-7.12,9.37-14.64,7.83-26.85l1.67-.58,6.33,15.76Z" transform="translate(-14.17 -14.66)"/><path class="cls-1" d="M183,125.75l-1.1-2c5.88-3.31,6.44-6,4.33-9.76L162.56,71.79c-1.93-3.45-4.21-3.83-10.1-.53l-1.1-2L176.88,55c12.17-6.83,21.75-4.46,26.24,3.55,4.14,7.38,3,16.5-7.25,23l25.47,15.43c3.28,2,5.87,1.46,10-.88l1.11,2L221.88,104,190.57,84.57l-10.91,6.12,11.53,20.57c2.12,3.76,5.17,4.43,10.67,1.34l1.1,2Zm-4.46-37,14.52-8.14c8.72-4.89,8.14-12.72,4.62-19-4.18-7.46-11.63-9.16-20.11-4.4l-7,3.92c-3.69,2.06-5,4.47-3.09,7.92Z" transform="translate(-14.17 -14.66)"/><path class="cls-1" d="M217.39,35.8l23-7.79.72,2.13c-6.65,2.25-8.43,4.28-7,8.54l15.74,46.45c1.15,3.41,3.92,4.28,10.57,2l.72,2.13-23,7.8L237.43,95c6.65-2.25,8.32-4.63,7.16-8L228.85,40.47c-1.44-4.26-4.09-4.79-10.74-2.53Z" transform="translate(-14.17 -14.66)"/><path class="cls-1" d="M266,86.59l-.32-2.23c6.06-.86,8.2-3.08,7.58-7.36l-6.84-47.75c-.59-4.1-3.23-5.36-9.28-4.49l-.32-2.23,46.77-6.7L312,30.08l-1.21,1.08c-5.23-4.8-10-12.66-23.81-10.68l-8.73,1.25c-4.63.67-6.81,2.61-6.22,6.71l3.08,21.48,13.54-2c6.24-.89,9.24-4,8-12.51l2.14-.31,3.57,25-2.14.3c-1.13-7.93-5-10.91-11.25-10l-13.55,1.94,3.43,23.88c.61,4.28,3.28,5.8,8,5.12l8.38-1.2c10.33-1.48,16-6.66,21.76-17.57l1.7.48-3.81,16.55Z" transform="translate(-14.17 -14.66)"/></svg>